<?xml version="1.0" encoding="utf-8"?><svg version="1.1" id="Layer_1" xmlns="http://www.w3.org/2000/svg" xmlns:xlink="http://www.w3.org/1999/xlink" x="0px" y="0px" width="121.699px" height="122.879px" viewBox="0 0 121.699 122.879" enable-background="new 0 0 121.699 122.879" xml:space="preserve"><g><path d="M53.613,0c14.79,0,28.202,6.018,37.918,15.694c9.715,9.716,15.693,23.089,15.693,37.918 c0,10.817-3.225,20.926-8.732,29.343l23.207,25.292l-16.008,14.632L83.311,98.256c-8.498,5.664-18.725,8.969-29.698,8.969 c-14.79,0-28.203-6.019-37.918-15.694C5.979,81.814,0,68.44,0,53.612c0-14.79,6.018-28.202,15.695-37.918 C25.41,5.979,38.784,0,53.613,0L53.613,0z M37.534,33.9c7.813-8.622,16.834-13.305,23.597-5.639 c1.773,0.084,3.359,0.671,4.684,1.921c2.781,2.615,3.213,7.508,1.941,11.394v3.392c0.861,0.567,1.418,1.628,1.67,2.835 c0.168,0.777,0.211,1.638,0.125,2.457c-0.082,0.851-0.293,1.659-0.629,2.332c-0.482,0.956-1.219,1.627-2.215,1.774 c-0.979,1.04-1.934,2.153-2.783,3.224c-0.936,1.176-1.734,2.289-2.289,3.203c-0.432,0.704-0.295,1.166-0.137,1.691 c0.072,0.262,0.156,0.535,0.209,0.829c1.713,0.367,3.256,0.661,4.643,0.924c8.811,1.648,14.01,2.163,14.01,13.631 c0,0.588-0.473,1.061-1.061,1.061H30.697c-0.588,0-1.061-0.473-1.061-1.061c0-11.468,5.189-11.982,14.01-13.631 c1.397-0.263,2.961-0.557,4.673-0.924c0.063-0.231,0.137-0.441,0.21-0.651c0.178-0.504,0.357-1.008-0.168-1.858 c-0.557-0.914-1.355-2.026-2.289-3.203c-0.851-1.071-1.807-2.184-2.783-3.224c-0.998-0.146-1.733-0.819-2.216-1.774 c-0.336-0.662-0.546-1.481-0.63-2.331c-0.074-0.819-0.032-1.68,0.126-2.458c0.252-1.208,0.798-2.258,1.648-2.825l-1.145-0.683 c-0.304-3.392,0.588-9.283-3.55-10.396L37.534,33.9L37.534,33.9z M87.283,19.942C78.668,11.328,66.75,5.979,53.613,5.979 c-13.138,0-25.056,5.35-33.67,13.963c-8.614,8.614-13.964,20.532-13.964,33.67c0,13.138,5.35,25.056,13.964,33.67 c8.614,8.614,20.532,13.964,33.67,13.964c13.137,0,25.055-5.35,33.67-13.964c8.613-8.614,13.963-20.532,13.963-33.67 C101.246,40.474,95.896,28.556,87.283,19.942L87.283,19.942L87.283,19.942z"/></g></svg>